<svg width="675" height="177" viewBox="0 0 675 177" fill="none" xmlns="http://www.w3.org/2000/svg">
<path d="M197.296 163.8C196.243 163.8 195.293 163.617 194.446 163.25C193.606 162.883 192.913 162.36 192.366 161.68C191.826 160.993 191.483 160.18 191.336 159.24L193.836 158.86C194.049 159.713 194.486 160.373 195.146 160.84C195.813 161.307 196.579 161.54 197.446 161.54C197.959 161.54 198.443 161.46 198.896 161.3C199.349 161.14 199.716 160.907 199.996 160.6C200.283 160.293 200.426 159.917 200.426 159.47C200.426 159.27 200.393 159.087 200.326 158.92C200.259 158.747 200.159 158.593 200.026 158.46C199.899 158.327 199.733 158.207 199.526 158.1C199.326 157.987 199.093 157.89 198.826 157.81L195.106 156.71C194.786 156.617 194.439 156.493 194.066 156.34C193.699 156.18 193.349 155.963 193.016 155.69C192.689 155.41 192.419 155.057 192.206 154.63C191.999 154.197 191.896 153.663 191.896 153.03C191.896 152.103 192.129 151.327 192.596 150.7C193.069 150.067 193.703 149.593 194.496 149.28C195.296 148.967 196.183 148.813 197.156 148.82C198.143 148.827 199.023 148.997 199.796 149.33C200.569 149.657 201.216 150.133 201.736 150.76C202.256 151.387 202.623 152.143 202.836 153.03L200.246 153.48C200.139 152.973 199.933 152.543 199.626 152.19C199.326 151.83 198.956 151.557 198.516 151.37C198.083 151.183 197.619 151.083 197.126 151.07C196.646 151.063 196.199 151.137 195.786 151.29C195.379 151.437 195.049 151.65 194.796 151.93C194.549 152.21 194.426 152.537 194.426 152.91C194.426 153.263 194.533 153.553 194.746 153.78C194.959 154 195.223 154.177 195.536 154.31C195.856 154.437 196.179 154.543 196.506 154.63L199.086 155.35C199.439 155.443 199.836 155.57 200.276 155.73C200.716 155.89 201.139 156.113 201.546 156.4C201.953 156.687 202.286 157.063 202.546 157.53C202.813 157.997 202.946 158.59 202.946 159.31C202.946 160.057 202.789 160.713 202.476 161.28C202.169 161.84 201.753 162.307 201.226 162.68C200.699 163.053 200.096 163.333 199.416 163.52C198.743 163.707 198.036 163.8 197.296 163.8ZM214.111 163.5V149.1H220.061C220.201 149.1 220.381 149.107 220.601 149.12C220.821 149.127 221.024 149.147 221.211 149.18C222.044 149.307 222.731 149.583 223.271 150.01C223.817 150.437 224.221 150.977 224.481 151.63C224.747 152.277 224.881 152.997 224.881 153.79C224.881 154.577 224.747 155.297 224.481 155.95C224.214 156.597 223.807 157.133 223.261 157.56C222.721 157.987 222.037 158.263 221.211 158.39C221.024 158.417 220.817 158.437 220.591 158.45C220.371 158.463 220.194 158.47 220.061 158.47H216.521V163.5H214.111ZM216.521 156.22H219.961C220.094 156.22 220.244 156.213 220.411 156.2C220.577 156.187 220.731 156.16 220.871 156.12C221.271 156.02 221.584 155.843 221.811 155.59C222.044 155.337 222.207 155.05 222.301 154.73C222.401 154.41 222.451 154.097 222.451 153.79C222.451 153.483 222.401 153.17 222.301 152.85C222.207 152.523 222.044 152.233 221.811 151.98C221.584 151.727 221.271 151.55 220.871 151.45C220.731 151.41 220.577 151.387 220.411 151.38C220.244 151.367 220.094 151.36 219.961 151.36H216.521V156.22ZM233.888 163.5L238.428 149.1H241.958L246.498 163.5H244.018L239.898 150.58H240.438L236.368 163.5H233.888ZM236.418 160.38V158.13H243.978V160.38H236.418ZM257.306 163.5V149.1H259.746L266.426 159.25V149.1H268.866V163.5H266.426L259.746 153.35V163.5H257.306ZM280.861 163.5V149.1H283.271V163.5H280.861ZM300.597 163.8C299.544 163.8 298.594 163.617 297.747 163.25C296.907 162.883 296.214 162.36 295.667 161.68C295.127 160.993 294.784 160.18 294.637 159.24L297.137 158.86C297.35 159.713 297.787 160.373 298.447 160.84C299.114 161.307 299.88 161.54 300.747 161.54C301.26 161.54 301.744 161.46 302.197 161.3C302.65 161.14 303.017 160.907 303.297 160.6C303.584 160.293 303.727 159.917 303.727 159.47C303.727 159.27 303.694 159.087 303.627 158.92C303.56 158.747 303.46 158.593 303.327 158.46C303.2 158.327 303.034 158.207 302.827 158.1C302.627 157.987 302.394 157.89 302.127 157.81L298.407 156.71C298.087 156.617 297.74 156.493 297.367 156.34C297 156.18 296.65 155.963 296.317 155.69C295.99 155.41 295.72 155.057 295.507 154.63C295.3 154.197 295.197 153.663 295.197 153.03C295.197 152.103 295.43 151.327 295.897 150.7C296.37 150.067 297.004 149.593 297.797 149.28C298.597 148.967 299.484 148.813 300.457 148.82C301.444 148.827 302.324 148.997 303.097 149.33C303.87 149.657 304.517 150.133 305.037 150.76C305.557 151.387 305.924 152.143 306.137 153.03L303.547 153.48C303.44 152.973 303.234 152.543 302.927 152.19C302.627 151.83 302.257 151.557 301.817 151.37C301.384 151.183 300.92 151.083 300.427 151.07C299.947 151.063 299.5 151.137 299.087 151.29C298.68 151.437 298.35 151.65 298.097 151.93C297.85 152.21 297.727 152.537 297.727 152.91C297.727 153.263 297.834 153.553 298.047 153.78C298.26 154 298.524 154.177 298.837 154.31C299.157 154.437 299.48 154.543 299.807 154.63L302.387 155.35C302.74 155.443 303.137 155.57 303.577 155.73C304.017 155.89 304.44 156.113 304.847 156.4C305.254 156.687 305.587 157.063 305.847 157.53C306.114 157.997 306.247 158.59 306.247 159.31C306.247 160.057 306.09 160.713 305.777 161.28C305.47 161.84 305.054 162.307 304.527 162.68C304 163.053 303.397 163.333 302.717 163.52C302.044 163.707 301.337 163.8 300.597 163.8ZM317.411 163.5V149.1H319.821V155.16H326.641V149.1H329.041V163.5H326.641V157.42H319.821V163.5H317.411ZM354.049 163.5V149.1H356.459V161.24H362.819V163.5H354.049ZM372.513 163.5L377.053 149.1H380.583L385.123 163.5H382.643L378.523 150.58H379.063L374.993 163.5H372.513ZM375.043 160.38V158.13H382.603V160.38H375.043ZM395.931 163.5V149.1H398.371L405.051 159.25V149.1H407.491V163.5H405.051L398.371 153.35V163.5H395.931ZM425.226 163.8C424.293 163.8 423.416 163.637 422.596 163.31C421.783 162.977 421.066 162.49 420.446 161.85C419.833 161.21 419.353 160.427 419.006 159.5C418.66 158.567 418.486 157.5 418.486 156.3C418.486 154.727 418.78 153.383 419.366 152.27C419.953 151.15 420.756 150.293 421.776 149.7C422.796 149.1 423.946 148.8 425.226 148.8C427 148.8 428.403 149.213 429.436 150.04C430.476 150.86 431.18 152.013 431.546 153.5L429.086 153.89C428.813 153.037 428.366 152.357 427.746 151.85C427.126 151.337 426.336 151.08 425.376 151.08C424.41 151.067 423.606 151.277 422.966 151.71C422.326 152.143 421.843 152.753 421.516 153.54C421.196 154.327 421.036 155.247 421.036 156.3C421.036 157.353 421.196 158.27 421.516 159.05C421.836 159.823 422.316 160.427 422.956 160.86C423.603 161.293 424.41 161.517 425.376 161.53C426.103 161.537 426.74 161.407 427.286 161.14C427.833 160.867 428.28 160.457 428.626 159.91C428.973 159.357 429.206 158.667 429.326 157.84H426.786V155.95H431.886C431.9 156.057 431.91 156.213 431.916 156.42C431.923 156.627 431.926 156.75 431.926 156.79C431.926 158.15 431.656 159.36 431.116 160.42C430.583 161.473 429.816 162.3 428.816 162.9C427.816 163.5 426.62 163.8 425.226 163.8ZM448.735 163.8C447.588 163.8 446.578 163.567 445.705 163.1C444.838 162.633 444.158 161.977 443.665 161.13C443.178 160.283 442.935 159.29 442.935 158.15V149.12L445.375 149.1V158.09C445.375 158.63 445.465 159.113 445.645 159.54C445.832 159.967 446.082 160.33 446.395 160.63C446.708 160.923 447.068 161.147 447.475 161.3C447.882 161.453 448.302 161.53 448.735 161.53C449.182 161.53 449.605 161.453 450.005 161.3C450.412 161.14 450.772 160.913 451.085 160.62C451.398 160.32 451.645 159.957 451.825 159.53C452.005 159.103 452.095 158.623 452.095 158.09V149.1H454.535V158.15C454.535 159.29 454.288 160.283 453.795 161.13C453.308 161.977 452.628 162.633 451.755 163.1C450.888 163.567 449.882 163.8 448.735 163.8ZM464.724 163.5L469.264 149.1H472.794L477.334 163.5H474.854L470.734 150.58H471.274L467.204 163.5H464.724ZM467.254 160.38V158.13H474.814V160.38H467.254ZM493.691 163.8C492.758 163.8 491.881 163.637 491.061 163.31C490.248 162.977 489.531 162.49 488.911 161.85C488.298 161.21 487.818 160.427 487.471 159.5C487.125 158.567 486.951 157.5 486.951 156.3C486.951 154.727 487.245 153.383 487.831 152.27C488.418 151.15 489.221 150.293 490.241 149.7C491.261 149.1 492.411 148.8 493.691 148.8C495.465 148.8 496.868 149.213 497.901 150.04C498.941 150.86 499.645 152.013 500.011 153.5L497.551 153.89C497.278 153.037 496.831 152.357 496.211 151.85C495.591 151.337 494.801 151.08 493.841 151.08C492.875 151.067 492.071 151.277 491.431 151.71C490.791 152.143 490.308 152.753 489.981 153.54C489.661 154.327 489.501 155.247 489.501 156.3C489.501 157.353 489.661 158.27 489.981 159.05C490.301 159.823 490.781 160.427 491.421 160.86C492.068 161.293 492.875 161.517 493.841 161.53C494.568 161.537 495.205 161.407 495.751 161.14C496.298 160.867 496.745 160.457 497.091 159.91C497.438 159.357 497.671 158.667 497.791 157.84H495.251V155.95H500.351C500.365 156.057 500.375 156.213 500.381 156.42C500.388 156.627 500.391 156.75 500.391 156.79C500.391 158.15 500.121 159.36 499.581 160.42C499.048 161.473 498.281 162.3 497.281 162.9C496.281 163.5 495.085 163.8 493.691 163.8ZM511.4 163.5V149.1H520.7V151.36H513.81V154.91H519.5V157.17H513.81V161.24H520.7V163.5H511.4ZM545.103 163.5V149.1H554.403V151.36H547.513V154.91H553.203V157.17H547.513V161.24H554.403V163.5H545.103ZM566.002 163.5V149.1H568.412V161.24H574.772V163.5H566.002ZM585.466 163.5V149.1H594.766V151.36H587.876V154.91H593.566V157.17H587.876V161.24H594.766V163.5H585.466Z" fill="#102A43"/>
<rect x="141.566" y="155.5" width="29" height="2" rx="1" fill="#FF5A1F"/>
<rect x="617.566" y="155.5" width="29" height="2" rx="1" fill="#FF5A1F"/>
<path d="M32.5662 79.715C26.5662 78.715 21.9035 77.3707 15.8208 70.4052C9.73806 63.4398 4.36866 53.1109 7.35544 39.9148C13.329 13.5226 37.0939 5.98462 55.3114 6.5395C55.3114 6.5395 58.3505 6.4506 74.566 6.53953C90.7815 6.62845 103.839 14.3446 110.066 25.2151" stroke="#FF5A1F" stroke-width="13" stroke-linecap="round" stroke-linejoin="round"/>
<path d="M69.4665 46.4341C87.587 45.9106 100.116 51.2892 108.072 59.6597C115.896 67.8922 118.548 78.2359 118.548 86.357C118.548 98.0171 115.578 106.972 110.21 113.578C104.88 120.136 97.7451 123.687 90.6862 125.634C83.6747 127.569 75.7245 127.786 69.5661 127.899C66.5661 127.954 64.4909 127.895 62.0661 127.899C62.0661 127.899 60.2811 127.887 59.5661 127.899L41.0661 126.899H38.0661L36.5661 127.399L35.5661 127.899L33.5661 128.899L30.5661 130.399L1.5661 143.898L10.1618 87.5845L24.0661 98.0845L19.0661 121.585L38.5661 113.102L43.0661 113.375L47.5661 113.648L50.5661 113.829L53.3662 113.999L60.0476 114.404L63.4152 114.608L64.2656 114.66L64.6797 114.685L64.8748 114.697L65.0661 114.708L65.6247 114.742L65.9026 114.759L66.5449 114.798C66.8239 114.798 71.4106 115.065 72.5661 115.133C78.3961 115.026 81.5661 115.133 87.2291 113.102C92.6029 111.62 96.9596 109.455 100.066 105.633C103.134 101.858 105.548 95.7677 105.548 86.357C105.548 80.805 103.699 73.9296 98.6481 68.6158C93.7456 63.458 85.0602 58.9681 69.7438 59.4312C69.6785 59.4332 69.6128 59.4341 69.5475 59.4341H44.0475C40.458 59.4339 37.5477 56.5236 37.5475 52.9341C37.5476 49.3445 40.4579 46.4344 44.0475 46.4341H69.4665Z" fill="#102A43"/>
<path d="M50.0662 91.2151C52.5514 91.2151 54.5662 89.2004 54.5662 86.7151C54.5662 84.2298 52.5514 82.2151 50.0662 82.2151C47.5809 82.2151 45.5662 84.2298 45.5662 86.7151C45.5662 89.2004 47.5809 91.2151 50.0662 91.2151Z" fill="#FF5A1F"/>
<path d="M66.0662 91.2151C68.5514 91.2151 70.5662 89.2004 70.5662 86.7151C70.5662 84.2298 68.5514 82.2151 66.0662 82.2151C63.5809 82.2151 61.5662 84.2298 61.5662 86.7151C61.5662 89.2004 63.5809 91.2151 66.0662 91.2151Z" fill="#FF5A1F"/>
<path d="M82.0662 91.2151C84.5514 91.2151 86.5662 89.2004 86.5662 86.7151C86.5662 84.2298 84.5514 82.2151 82.0662 82.2151C79.5809 82.2151 77.5662 84.2298 77.5662 86.7151C77.5662 89.2004 79.5809 91.2151 82.0662 91.2151Z" fill="#FF5A1F"/>
<path d="M159.856 104.983C153.736 104.983 148.786 103.603 145.006 100.843C141.256 98.0528 138.976 94.1228 138.166 89.0528L150.676 87.1628C151.186 89.4428 152.311 91.2278 154.051 92.5178C155.821 93.8078 158.056 94.4528 160.756 94.4528C162.976 94.4528 164.686 94.0328 165.886 93.1928C167.086 92.3228 167.686 91.1228 167.686 89.5928C167.686 88.6328 167.446 87.8678 166.966 87.2978C166.486 86.6978 165.406 86.1128 163.726 85.5428C162.076 84.9728 159.496 84.2228 155.986 83.2928C152.026 82.2728 148.861 81.1328 146.491 79.8728C144.121 78.6128 142.411 77.1128 141.361 75.3728C140.311 73.6028 139.786 71.4728 139.786 68.9828C139.786 65.8628 140.581 63.1628 142.171 60.8828C143.761 58.5728 145.996 56.8028 148.876 55.5728C151.786 54.3128 155.206 53.6828 159.136 53.6828C162.946 53.6828 166.321 54.2678 169.261 55.4378C172.201 56.6078 174.571 58.2728 176.371 60.4328C178.201 62.5928 179.326 65.1428 179.746 68.0828L167.236 70.3328C167.026 68.5328 166.246 67.1078 164.896 66.0578C163.546 65.0078 161.716 64.3928 159.406 64.2128C157.156 64.0628 155.341 64.3628 153.961 65.1128C152.611 65.8628 151.936 66.9428 151.936 68.3528C151.936 69.1928 152.221 69.8978 152.791 70.4678C153.391 71.0378 154.606 71.6228 156.436 72.2228C158.296 72.8228 161.116 73.6028 164.896 74.5628C168.586 75.5228 171.541 76.6478 173.761 77.9378C176.011 79.1978 177.646 80.7278 178.666 82.5278C179.686 84.2978 180.196 86.4428 180.196 88.9628C180.196 93.9428 178.396 97.8578 174.796 100.708C171.196 103.558 166.216 104.983 159.856 104.983ZM210.875 104.983C205.895 104.983 201.5 103.918 197.69 101.788C193.91 99.6278 190.94 96.6728 188.78 92.9228C186.65 89.1428 185.585 84.8228 185.585 79.9628C185.585 74.6528 186.635 70.0328 188.735 66.1028C190.835 62.1728 193.73 59.1278 197.42 56.9678C201.11 54.7778 205.355 53.6828 210.155 53.6828C215.255 53.6828 219.59 54.8828 223.16 57.2828C226.73 59.6828 229.37 63.0578 231.08 67.4078C232.79 71.7578 233.39 76.8728 232.88 82.7528H220.775V78.2528C220.775 73.3028 219.98 69.7478 218.39 67.5878C216.83 65.3978 214.265 64.3028 210.695 64.3028C206.525 64.3028 203.45 65.5778 201.47 68.1278C199.52 70.6478 198.545 74.3828 198.545 79.3328C198.545 83.8628 199.52 87.3728 201.47 89.8628C203.45 92.3228 206.345 93.5528 210.155 93.5528C212.555 93.5528 214.61 93.0278 216.32 91.9778C218.03 90.9278 219.335 89.4128 220.235 87.4328L232.475 90.9428C230.645 95.3828 227.75 98.8328 223.79 101.293C219.86 103.753 215.555 104.983 210.875 104.983ZM194.765 82.7528V73.6628H226.985V82.7528H194.765ZM265.091 104.983C260.261 104.983 256.226 103.858 252.986 101.608C249.746 99.3578 247.301 96.2978 245.651 92.4278C244.031 88.5578 243.221 84.1928 243.221 79.3328C243.221 74.4728 244.031 70.1078 245.651 66.2378C247.271 62.3678 249.656 59.3078 252.806 57.0578C255.956 54.8078 259.841 53.6828 264.461 53.6828C269.111 53.6828 273.161 54.7928 276.611 57.0128C280.061 59.2328 282.731 62.2778 284.621 66.1478C286.541 69.9878 287.501 74.3828 287.501 79.3328C287.501 84.1928 286.556 88.5578 284.666 92.4278C282.806 96.2978 280.196 99.3578 276.836 101.608C273.476 103.858 269.561 104.983 265.091 104.983ZM241.151 103.633V38.8328H253.481V70.3328H251.951V103.633H241.151ZM263.111 94.0928C265.751 94.0928 267.911 93.4328 269.591 92.1128C271.271 90.7928 272.516 89.0228 273.326 86.8028C274.136 84.5528 274.541 82.0628 274.541 79.3328C274.541 76.6328 274.121 74.1728 273.281 71.9528C272.441 69.7028 271.136 67.9178 269.366 66.5978C267.626 65.2478 265.391 64.5728 262.661 64.5728C260.111 64.5728 258.041 65.1878 256.451 66.4178C254.891 67.6478 253.751 69.3728 253.031 71.5928C252.311 73.8128 251.951 76.3928 251.951 79.3328C251.951 82.2728 252.311 84.8528 253.031 87.0728C253.751 89.2928 254.921 91.0178 256.541 92.2478C258.191 93.4778 260.381 94.0928 263.111 94.0928ZM309.103 104.983C305.623 104.983 302.668 104.323 300.238 103.003C297.838 101.653 296.008 99.8678 294.748 97.6478C293.518 95.3978 292.903 92.9228 292.903 90.2228C292.903 87.9728 293.248 85.9178 293.938 84.0578C294.628 82.1978 295.738 80.5628 297.268 79.1528C298.828 77.7128 300.913 76.5128 303.523 75.5528C305.323 74.8928 307.468 74.3078 309.958 73.7978C312.448 73.2878 315.268 72.8078 318.418 72.3578C321.568 71.8778 325.033 71.3528 328.813 70.7828L324.403 73.2128C324.403 70.3328 323.713 68.2178 322.333 66.8678C320.953 65.5178 318.643 64.8428 315.403 64.8428C313.603 64.8428 311.728 65.2778 309.778 66.1478C307.828 67.0178 306.463 68.5628 305.683 70.7828L294.613 67.2728C295.843 63.2528 298.153 59.9828 301.543 57.4628C304.933 54.9428 309.553 53.6828 315.403 53.6828C319.693 53.6828 323.503 54.3428 326.833 55.6628C330.163 56.9828 332.683 59.2628 334.393 62.5028C335.353 64.3028 335.923 66.1028 336.103 67.9028C336.283 69.7028 336.373 71.7128 336.373 73.9328V103.633H325.663V93.6428L327.193 95.7128C324.823 98.9828 322.258 101.353 319.498 102.823C316.768 104.263 313.303 104.983 309.103 104.983ZM311.713 95.3528C313.963 95.3528 315.853 94.9628 317.383 94.1828C318.943 93.3728 320.173 92.4578 321.073 91.4378C322.003 90.4178 322.633 89.5628 322.963 88.8728C323.593 87.5528 323.953 86.0228 324.043 84.2828C324.163 82.5128 324.223 81.0428 324.223 79.8728L327.823 80.7728C324.193 81.3728 321.253 81.8828 319.003 82.3028C316.753 82.6928 314.938 83.0528 313.558 83.3828C312.178 83.7128 310.963 84.0728 309.913 84.4628C308.713 84.9428 307.738 85.4678 306.988 86.0378C306.268 86.5778 305.728 87.1778 305.368 87.8378C305.038 88.4978 304.873 89.2328 304.873 90.0428C304.873 91.1528 305.143 92.1128 305.683 92.9228C306.253 93.7028 307.048 94.3028 308.068 94.7228C309.088 95.1428 310.303 95.3528 311.713 95.3528Z" fill="#102A43"/>
<path d="M367.856 104.983C361.736 104.983 356.786 103.603 353.006 100.843C349.256 98.0528 346.976 94.1228 346.166 89.0528L358.676 87.1628C359.186 89.4428 360.311 91.2278 362.051 92.5178C363.821 93.8078 366.056 94.4528 368.756 94.4528C370.976 94.4528 372.686 94.0328 373.886 93.1928C375.086 92.3228 375.686 91.1228 375.686 89.5928C375.686 88.6328 375.446 87.8678 374.966 87.2978C374.486 86.6978 373.406 86.1128 371.726 85.5428C370.076 84.9728 367.496 84.2228 363.986 83.2928C360.026 82.2728 356.861 81.1328 354.491 79.8728C352.121 78.6128 350.411 77.1128 349.361 75.3728C348.311 73.6028 347.786 71.4728 347.786 68.9828C347.786 65.8628 348.581 63.1628 350.171 60.8828C351.761 58.5728 353.996 56.8028 356.876 55.5728C359.786 54.3128 363.206 53.6828 367.136 53.6828C370.946 53.6828 374.321 54.2678 377.261 55.4378C380.201 56.6078 382.571 58.2728 384.371 60.4328C386.201 62.5928 387.326 65.1428 387.746 68.0828L375.236 70.3328C375.026 68.5328 374.246 67.1078 372.896 66.0578C371.546 65.0078 369.716 64.3928 367.406 64.2128C365.156 64.0628 363.341 64.3628 361.961 65.1128C360.611 65.8628 359.936 66.9428 359.936 68.3528C359.936 69.1928 360.221 69.8978 360.791 70.4678C361.391 71.0378 362.606 71.6228 364.436 72.2228C366.296 72.8228 369.116 73.6028 372.896 74.5628C376.586 75.5228 379.541 76.6478 381.761 77.9378C384.011 79.1978 385.646 80.7278 386.666 82.5278C387.686 84.2978 388.196 86.4428 388.196 88.9628C388.196 93.9428 386.396 97.8578 382.796 100.708C379.196 103.558 374.216 104.983 367.856 104.983ZM420.135 104.983C415.305 104.983 411.27 103.858 408.03 101.608C404.79 99.3578 402.345 96.2978 400.695 92.4278C399.075 88.5578 398.265 84.1928 398.265 79.3328C398.265 74.4728 399.075 70.1078 400.695 66.2378C402.315 62.3678 404.7 59.3078 407.85 57.0578C411 54.8078 414.885 53.6828 419.505 53.6828C424.155 53.6828 428.205 54.7928 431.655 57.0128C435.105 59.2328 437.775 62.2778 439.665 66.1478C441.585 69.9878 442.545 74.3828 442.545 79.3328C442.545 84.1928 441.6 88.5578 439.71 92.4278C437.85 96.2978 435.24 99.3578 431.88 101.608C428.52 103.858 424.605 104.983 420.135 104.983ZM396.195 125.233V55.0328H406.995V88.3328H408.525V125.233H396.195ZM418.155 94.0928C420.795 94.0928 422.955 93.4328 424.635 92.1128C426.315 90.7928 427.56 89.0228 428.37 86.8028C429.18 84.5528 429.585 82.0628 429.585 79.3328C429.585 76.6328 429.165 74.1728 428.325 71.9528C427.485 69.7028 426.18 67.9178 424.41 66.5978C422.67 65.2478 420.435 64.5728 417.705 64.5728C415.155 64.5728 413.085 65.1878 411.495 66.4178C409.935 67.6478 408.795 69.3728 408.075 71.5928C407.355 73.8128 406.995 76.3928 406.995 79.3328C406.995 82.2728 407.355 84.8528 408.075 87.0728C408.795 89.2928 409.965 91.0178 411.585 92.2478C413.235 93.4778 415.425 94.0928 418.155 94.0928ZM464.147 104.983C460.667 104.983 457.712 104.323 455.282 103.003C452.882 101.653 451.052 99.8678 449.792 97.6478C448.562 95.3978 447.947 92.9228 447.947 90.2228C447.947 87.9728 448.292 85.9178 448.982 84.0578C449.672 82.1978 450.782 80.5628 452.312 79.1528C453.872 77.7128 455.957 76.5128 458.567 75.5528C460.367 74.8928 462.512 74.3078 465.002 73.7978C467.492 73.2878 470.312 72.8078 473.462 72.3578C476.612 71.8778 480.077 71.3528 483.857 70.7828L479.447 73.2128C479.447 70.3328 478.757 68.2178 477.377 66.8678C475.997 65.5178 473.687 64.8428 470.447 64.8428C468.647 64.8428 466.772 65.2778 464.822 66.1478C462.872 67.0178 461.507 68.5628 460.727 70.7828L449.657 67.2728C450.887 63.2528 453.197 59.9828 456.587 57.4628C459.977 54.9428 464.597 53.6828 470.447 53.6828C474.737 53.6828 478.547 54.3428 481.877 55.6628C485.207 56.9828 487.727 59.2628 489.437 62.5028C490.397 64.3028 490.967 66.1028 491.147 67.9028C491.327 69.7028 491.417 71.7128 491.417 73.9328V103.633H480.707V93.6428L482.237 95.7128C479.867 98.9828 477.302 101.353 474.542 102.823C471.812 104.263 468.347 104.983 464.147 104.983ZM466.757 95.3528C469.007 95.3528 470.897 94.9628 472.427 94.1828C473.987 93.3728 475.217 92.4578 476.117 91.4378C477.047 90.4178 477.677 89.5628 478.007 88.8728C478.637 87.5528 478.997 86.0228 479.087 84.2828C479.207 82.5128 479.267 81.0428 479.267 79.8728L482.867 80.7728C479.237 81.3728 476.297 81.8828 474.047 82.3028C471.797 82.6928 469.982 83.0528 468.602 83.3828C467.222 83.7128 466.007 84.0728 464.957 84.4628C463.757 84.9428 462.782 85.4678 462.032 86.0378C461.312 86.5778 460.772 87.1778 460.412 87.8378C460.082 88.4978 459.917 89.2328 459.917 90.0428C459.917 91.1528 460.187 92.1128 460.727 92.9228C461.297 93.7028 462.092 94.3028 463.112 94.7228C464.132 95.1428 465.347 95.3528 466.757 95.3528ZM534.438 103.633V80.6828C534.438 79.5728 534.378 78.1628 534.258 76.4528C534.138 74.7128 533.763 72.9728 533.133 71.2328C532.503 69.4928 531.468 68.0378 530.028 66.8678C528.618 65.6978 526.608 65.1128 523.998 65.1128C522.948 65.1128 521.823 65.2778 520.623 65.6078C519.423 65.9378 518.298 66.5828 517.248 67.5428C516.198 68.4728 515.328 69.8528 514.638 71.6828C513.978 73.5128 513.648 75.9428 513.648 78.9728L506.628 75.6428C506.628 71.8028 507.408 68.2028 508.968 64.8428C510.528 61.4828 512.868 58.7678 515.988 56.6978C519.138 54.6278 523.098 53.5928 527.868 53.5928C531.678 53.5928 534.783 54.2378 537.183 55.5278C539.583 56.8178 541.443 58.4528 542.763 60.4328C544.113 62.4128 545.073 64.4828 545.643 66.6428C546.213 68.7728 546.558 70.7228 546.678 72.4928C546.798 74.2628 546.858 75.5528 546.858 76.3628V103.633H534.438ZM501.228 103.633V55.0328H512.118V71.1428H513.648V103.633H501.228ZM557.635 48.2828V37.4828H569.875V48.2828H557.635ZM557.635 103.633V55.0328H569.875V103.633H557.635ZM600.555 104.983C594.435 104.983 589.485 103.603 585.705 100.843C581.955 98.0528 579.675 94.1228 578.865 89.0528L591.375 87.1628C591.885 89.4428 593.01 91.2278 594.75 92.5178C596.52 93.8078 598.755 94.4528 601.455 94.4528C603.675 94.4528 605.385 94.0328 606.585 93.1928C607.785 92.3228 608.385 91.1228 608.385 89.5928C608.385 88.6328 608.145 87.8678 607.665 87.2978C607.185 86.6978 606.105 86.1128 604.425 85.5428C602.775 84.9728 600.195 84.2228 596.685 83.2928C592.725 82.2728 589.56 81.1328 587.19 79.8728C584.82 78.6128 583.11 77.1128 582.06 75.3728C581.01 73.6028 580.485 71.4728 580.485 68.9828C580.485 65.8628 581.28 63.1628 582.87 60.8828C584.46 58.5728 586.695 56.8028 589.575 55.5728C592.485 54.3128 595.905 53.6828 599.835 53.6828C603.645 53.6828 607.02 54.2678 609.96 55.4378C612.9 56.6078 615.27 58.2728 617.07 60.4328C618.9 62.5928 620.025 65.1428 620.445 68.0828L607.935 70.3328C607.725 68.5328 606.945 67.1078 605.595 66.0578C604.245 65.0078 602.415 64.3928 600.105 64.2128C597.855 64.0628 596.04 64.3628 594.66 65.1128C593.31 65.8628 592.635 66.9428 592.635 68.3528C592.635 69.1928 592.92 69.8978 593.49 70.4678C594.09 71.0378 595.305 71.6228 597.135 72.2228C598.995 72.8228 601.815 73.6028 605.595 74.5628C609.285 75.5228 612.24 76.6478 614.46 77.9378C616.71 79.1978 618.345 80.7278 619.365 82.5278C620.385 84.2978 620.895 86.4428 620.895 88.9628C620.895 93.9428 619.095 97.8578 615.495 100.708C611.895 103.558 606.915 104.983 600.555 104.983ZM662.104 103.633V80.6828C662.104 79.5728 662.044 78.1628 661.924 76.4528C661.804 74.7128 661.429 72.9728 660.799 71.2328C660.169 69.4928 659.134 68.0378 657.694 66.8678C656.284 65.6978 654.274 65.1128 651.664 65.1128C650.614 65.1128 649.489 65.2778 648.289 65.6078C647.089 65.9378 645.964 66.5828 644.914 67.5428C643.864 68.4728 642.994 69.8528 642.304 71.6828C641.644 73.5128 641.314 75.9428 641.314 78.9728L634.294 75.6428C634.294 71.8028 635.074 68.2028 636.634 64.8428C638.194 61.4828 640.534 58.7678 643.654 56.6978C646.804 54.6278 650.764 53.5928 655.534 53.5928C659.344 53.5928 662.449 54.2378 664.849 55.5278C667.249 56.8178 669.109 58.4528 670.429 60.4328C671.779 62.4128 672.739 64.4828 673.309 66.6428C673.879 68.7728 674.224 70.7228 674.344 72.4928C674.464 74.2628 674.524 75.5528 674.524 76.3628V103.633H662.104ZM628.894 103.633V38.8328H639.784V72.1328H641.314V103.633H628.894Z" fill="#FF5A1F"/>
</svg>
